<svg width="236" height="340" viewBox="0 0 236 340" xmlns="http://www.w3.org/2000/svg"><g fill="none" fill-rule="evenodd"><path fill="#5B9996" d="M126.905.14l-70.14 46.73 22.5 18.85 64.002 53.623-12.523-91.32"/><path fill="#558C89" d="M0 210.572l22.373 11.01 47.42 23.288 73.538-109.035L74.89 78.5 49.407 57.133"/><path fill="#91C6C4" d="M96.667 257.017l70.45 31.248 37.513 16.647 30.396-60.385"/><path fill="#74AFAD" d="M232.727 232.095L84.614 245.47l69.163-101.99"/><path fill="#91C6C4" d="M161.013 132.623l74.954 84.178-26.37-159.166"/><path fill="#74AFAD" d="M71.933 252.927v.032h.063l-.032-.033M25.55 300.442l40.655 38.867 78.67-2.74 47.732-23.223-119.633-53.055"/><path fill="#558C89" d="M19.572 288.99l38.672-32.728 2.266-1.92-16.048-7.898-42.32-20.798"/><path fill="#74AFAD" d="M155.667 117.08l48.74-74.768-64.568-40.5"/></g></svg>