<svg width="385" height="118" viewBox="0 0 385 118" xmlns="http://www.w3.org/2000/svg"><g fill="none" fill-rule="evenodd"><g fill-rule="nonzero"><path fill="#5B9996" d="M52.9 49L19.4 20.9 46.6 2.8"/><path fill="#558C89" d="M52.9 49L27.6 86.6 2.3 74.2l17.1-53.3"/><path fill="#91C6C4" d="M82.8 81.6l-55.2 5 43.1 19.1"/><path fill="#74AFAD" d="M82.8 81.6l-55.2 5 25.8-38"/><path fill="#91C6C4" d="M82.8 81.6L53.4 48.5l19-29.4"/><path fill="#74AFAD" d="M70.7 105.7l-19.5 9.4-26.2 1-15.2-14.5 17.8-15"/><path fill="#558C89" d="M9.8 101.6L2.3 74.2l25.3 12.4"/><path fill="#74AFAD" d="M52.9 49L46.6 2.8 72.5 19"/><path d="M84.8 81.6v-.4L74.5 19v-.4c-.1-.5-.4-1-.9-1.3l-26-16.2s-.1 0-.1-.1l-.1-.1h-.2c-.1 0-.1-.1-.2-.1h-1c-.1 0-.3.1-.4.2h-.1L18.3 19.3c-.1 0-.1.1-.1.1-.1 0-.1.1-.2.1l-.2.2c0 .1-.1.1-.1.2-.1.1-.1.2-.1.3l-.1.1L.4 73.5c0 .2-.1.3-.1.5v.1c0 .2 0 .3.1.5L8 102v.1c0 .1.1.2.1.3 0 .1.1.1.1.2.1.1.1.2.2.2l.1.1 15.1 14.5c.4.4.9.6 1.4.6h.1l26.3-.9c.3 0 .6-.1.8-.2l19.4-9.5.1-.1c.1 0 .2-.1.2-.2l.2-.2.2-.2.2-.2v-.1l12.1-24.1v-.1V81.9c0-.1.1-.1.1-.2v-.1c.1.2.1.1.1 0zm-15.1 21.5l-11.9-5.3-22.4-9.9 44-4-9.7 19.2zM10.9 98L5.4 77.9l13.5 6.6L24 87l-.7.6L10.9 98zm9.5-73.6l8.1 6.8 21.7 18.2L26.9 84l-15.1-7.4-7.1-3.5 15.7-48.7zm25.9-9.3l4 29-20.3-17-7.1-6L45 6.2l1.3 8.9zM31.6 84.2l22-32.4L78.7 80l-47.1 4.2zm24.3-35.9l15.4-23.8 8.4 50.6-23.8-26.8zm-1.7-4.9l-5-36.6 20.5 12.9-15.5 23.7zm-3.5 69.8l-25 .9-12.9-12.3L27.9 89l38 16.9-15.2 7.3z" fill="#FFF"/></g><path d="M120.028 31.148v63h7.2v-27.18h29.43v-6.57h-29.43v-22.59h32.85v-6.66h-40.05zm50.67 0v63h34.83v-6.66h-27.63v-56.34h-7.2zm92.79 0h-7.38l-20.16 33.03-20.43-33.03h-7.47l24.39 41.31v21.69h7.11v-21.87l23.94-41.13zm9.99 0v63h7.2v-51.12l37.8 51.12h7.38v-63h-7.11v51.21l-37.8-51.21h-7.47zm63 0v6.66h20.52v56.34h7.2v-56.34h20.61v-6.66h-48.33z" fill="#000"/></g></svg>